# Blender v2.66 (sub 1) OBJ File: ''
# www.blender.org
mtllib bsvetla.mtl
g Plane.011_Plane.013
v -5.781318 -0.932971 -0.419686
v -5.771148 -0.932971 -0.419486
v -5.771148 -0.932971 -0.469906
v -5.781318 -0.932971 -0.469376
v -5.781318 -1.105751 -0.419686
v -5.771148 -1.105751 -0.419486
v -5.771148 -1.105751 -0.469906
v -5.781318 -1.105751 -0.469376
v -5.781318 0.924880 -0.474869
v -5.771148 0.924880 -0.475399
v -5.771148 0.924880 -0.424979
v -5.781318 0.924880 -0.425179
v -5.781318 1.097663 -0.474869
v -5.771148 1.097663 -0.475399
v -5.771148 1.097663 -0.424979
v -5.781318 1.097663 -0.425179
vn 0.000000 1.000000 -0.000000
vn -0.000000 -1.000000 0.000000
vn -0.019662 0.000000 0.999807
vn 1.000000 0.000000 0.000000
vn -0.052044 0.000000 -0.998645
vn -1.000000 0.000000 0.000000
vn -0.052041 0.000000 -0.998645
usemtl DefaultWhite.001
s off
f 1//1 2//1 4//1
f 5//2 8//2 6//2
f 1//3 5//3 2//3
f 2//4 6//4 7//4
f 3//5 7//5 4//5
f 5//6 1//6 8//6
f 13//6 9//6 16//6
f 14//7 10//7 13//7
f 15//4 11//4 10//4
f 16//3 12//3 15//3
f 12//2 9//2 11//2
f 14//1 13//1 15//1
f 2//1 3//1 4//1
f 8//2 7//2 6//2
f 5//3 6//3 2//3
f 3//4 2//4 7//4
f 7//5 8//5 4//5
f 1//6 4//6 8//6
f 9//6 12//6 16//6
f 10//7 9//7 13//7
f 14//4 15//4 10//4
f 12//3 11//3 15//3
f 9//2 10//2 11//2
f 13//1 16//1 15//1
