# Blender v2.66 (sub 1) OBJ File: ''
# www.blender.org
mtllib lsmer.mtl
g Untitled
v 4.229210 1.276560 -0.240848
v 4.315790 1.276560 -0.240848
v 4.339520 1.240890 -0.223868
v 4.196340 1.240890 -0.223868
vn 0.000000 0.429792 0.902890
usemtl ac3dmat1
s 1
f 2//1 1//1 3//1
f 1//1 4//1 3//1
g Plane.009_Plane.011
v -5.781320 0.923605 -0.318039
v -5.771150 0.923605 -0.318569
v -5.771150 0.923605 -0.268139
v -5.781320 0.923605 -0.268349
v -5.781320 1.096390 -0.318039
v -5.771150 1.096390 -0.318569
v -5.771150 1.096390 -0.268139
v -5.781320 1.096390 -0.268349
vn -1.000000 0.000000 -0.000000
vn -0.052044 -0.000000 -0.998645
vn 1.000000 0.000000 0.000000
vn -0.020643 0.000000 0.999787
vn -0.000000 -1.000000 0.000000
vn 0.000000 1.000000 -0.000000
usemtl DefaultWhite.003
s off
f 9//2 5//2 12//2
f 5//3 9//3 6//3
f 11//4 7//4 6//4
f 12//5 8//5 11//5
f 8//6 5//6 7//6
f 12//7 11//7 9//7
f 5//2 8//2 12//2
f 9//3 10//3 6//3
f 10//4 11//4 6//4
f 8//5 7//5 11//5
f 5//6 6//6 7//6
f 11//7 10//7 9//7
g Plane.004
v 4.196340 1.240890 -0.223868
v 4.339520 1.240890 -0.223868
v 4.339520 1.240890 -0.309788
v 4.196340 1.240890 -0.309788
v 4.229210 1.276560 -0.240848
v 4.315790 1.276560 -0.240848
v 4.315790 1.276560 -0.292808
v 4.229210 1.276560 -0.292808
vn -0.735381 0.677653 0.000000
vn 0.832590 0.553890 -0.000000
vn 0.000000 0.429816 -0.902916
usemtl DefaultWhite.003
s off
f 13//8 17//8 16//8
f 18//9 14//9 15//9
f 19//10 15//10 20//10
f 16//7 13//7 14//7
f 17//7 18//7 19//7
f 17//8 20//8 16//8
f 19//9 18//9 15//9
f 15//10 16//10 20//10
f 15//7 16//7 14//7
f 20//7 17//7 19//7
g Plane.007_Plane.010
v 5.770870 0.982196 -0.459310
v 5.770860 1.067640 -0.453120
v 5.770860 1.067640 -0.236020
v 5.770870 0.982196 -0.235450
vn 1.000000 0.000117 0.000000
usemtl DefaultWhite.003
s off
f 21//11 22//11 24//11
f 22//11 23//11 24//11
