# Blender v2.66 (sub 1) OBJ File: ''
# www.blender.org
mtllib psvetla.mtl
g Plane.008
v 5.770908 -0.799890 -0.653330
v 5.770928 -1.088850 -0.652210
v 5.770888 0.818412 -0.664640
v 5.770928 -1.088850 -0.804580
v 5.770908 -0.799890 -0.805690
v 5.770858 1.098111 -0.651190
v 5.770858 1.098111 -0.803540
v 5.770888 0.818412 -0.819600
vn 1.000000 0.000107 -0.000000
vn 1.000000 0.000069 -0.000000
usemtl DefaultWhite.004
s off
f 3//1 8//1 7//1
f 1//2 2//2 4//2
f 6//1 3//1 7//1
f 5//2 1//2 4//2
g Plane.005
v 5.770798 0.539997 -0.821650
v 5.770798 0.518429 -0.788450
v 5.770798 0.512234 -0.749330
v 5.770798 0.522483 -0.711070
v 5.770798 0.547405 -0.680300
v 5.770798 0.582691 -0.662320
v 5.770798 0.622238 -0.670550
v 5.770798 0.659210 -0.684980
v 5.770798 0.687213 -0.713460
v 5.770798 0.701405 -0.751070
v 5.770798 0.699332 -0.791290
v 5.770798 0.681354 -0.827190
v 5.770798 0.650576 -0.852530
v 5.770798 0.612325 -0.849420
v 5.770798 0.573210 -0.843230
v 5.770798 -0.669860 -0.843230
v 5.770798 -0.630750 -0.849420
v 5.770798 -0.592500 -0.839170
v 5.770798 -0.561720 -0.814250
v 5.770798 -0.543740 -0.778970
v 5.770798 -0.541660 -0.739420
v 5.770798 -0.555860 -0.702440
v 5.770798 -0.583860 -0.674440
v 5.770798 -0.620830 -0.660250
v 5.770798 -0.660380 -0.662320
v 5.770798 -0.695670 -0.680290
v 5.770798 -0.720580 -0.711070
v 5.770798 -0.730840 -0.749330
v 5.770798 -0.724640 -0.788450
v 5.770798 -0.703080 -0.821650
vn 1.000000 -0.000000 0.000000
usemtl DefaultWhite.004
s off
f 31//3 32//3 33//3
f 31//3 33//3 34//3
f 30//3 31//3 34//3
f 30//3 34//3 35//3
f 29//3 30//3 35//3
f 29//3 35//3 36//3
f 28//3 29//3 36//3
f 28//3 36//3 37//3
f 27//3 28//3 37//3
f 27//3 37//3 38//3
f 26//3 27//3 38//3
f 26//3 38//3 24//3
f 25//3 26//3 24//3
f 15//3 14//3 13//3
f 16//3 15//3 13//3
f 16//3 13//3 12//3
f 17//3 16//3 12//3
f 17//3 12//3 11//3
f 18//3 17//3 11//3
f 18//3 11//3 10//3
f 19//3 18//3 10//3
f 10//3 9//3 19//3
f 19//3 9//3 20//3
f 20//3 9//3 23//3
f 21//3 20//3 23//3
f 21//3 23//3 22//3
