# Blender v2.66 (sub 1) OBJ File: ''
# www.blender.org
mtllib zpsvetla.mtl
g Plane.001
v -5.781318 0.924880 -0.551379
v -5.771148 0.924880 -0.551909
v -5.771148 0.924880 -0.501479
v -5.781318 0.924880 -0.501689
v -5.781318 1.097663 -0.551379
v -5.771148 1.097663 -0.551909
v -5.771148 1.097663 -0.501479
v -5.781318 1.097663 -0.501689
v -5.781318 -0.932971 -0.496196
v -5.771148 -0.932971 -0.495986
v -5.771148 -0.932971 -0.546416
v -5.781318 -0.932971 -0.545886
v -5.781318 -1.105751 -0.496196
v -5.771148 -1.105751 -0.495986
v -5.771148 -1.105751 -0.546416
v -5.781318 -1.105751 -0.545886
vn -1.000000 0.000000 -0.000000
vn -0.052044 -0.000000 -0.998645
vn 1.000000 0.000000 0.000000
vn -0.020643 0.000000 0.999787
vn -0.000000 -1.000000 0.000000
vn 0.000000 1.000000 0.000000
usemtl DefaultWhite.007
s off
f 5//1 1//1 8//1
f 1//2 5//2 2//2
f 7//3 3//3 2//3
f 8//4 4//4 7//4
f 4//5 1//5 3//5
f 6//6 5//6 7//6
f 11//6 12//6 10//6
f 13//5 16//5 14//5
f 9//4 13//4 10//4
f 10//3 14//3 15//3
f 11//2 15//2 12//2
f 12//1 16//1 9//1
f 1//1 4//1 8//1
f 5//2 6//2 2//2
f 6//3 7//3 2//3
f 4//4 3//4 7//4
f 1//5 2//5 3//5
f 5//6 8//6 7//6
f 12//6 9//6 10//6
f 16//5 15//5 14//5
f 13//4 14//4 10//4
f 11//3 10//3 15//3
f 15//2 16//2 12//2
f 16//1 13//1 9//1
