# Blender v2.66 (sub 1) OBJ File: ''
# www.blender.org
mtllib psvetla.mtl
g Plane_1.010_Plane.020
v 1.850899 0.688622 -0.195540
v 1.767939 0.688461 -0.064550
v 1.887949 0.687282 -0.269430
v 1.767939 -0.698764 -0.064550
v 1.887949 -0.695837 -0.269430
v 1.887949 0.448860 -0.269430
v 1.767939 0.479912 -0.064550
v 1.887949 -0.445816 -0.269430
v 1.767939 -0.492305 -0.064550
v 1.850899 -0.697209 -0.195540
v 1.850899 0.448860 -0.195540
v 1.850899 -0.445816 -0.195540
vn 0.872951 0.000000 0.487777
vn 0.844813 0.000000 0.535051
vn 0.870235 0.000000 0.492599
vn 0.893918 0.000000 0.448225
vn 0.870327 0.000000 0.492447
vn 0.872097 0.000000 0.489303
usemtl ac3dmat1.006
s 1
f 12//1 9//2 10//3
f 12//1 10//3 5//4
f 1//5 11//6 3//4
f 1//5 2//2 7//2
f 9//2 4//2 10//3
f 8//4 12//1 5//4
f 11//6 6//4 3//4
f 11//6 1//5 7//2
