# Blender v2.66 (sub 1) OBJ File: ''
# www.blender.org
mtllib zpsvetla.mtl
g Plane_1.005_Plane.024
v -1.887841 -0.618283 -0.015850
v -1.887841 -0.455632 -0.015850
v -1.887841 0.613192 -0.015850
v -1.887841 0.446082 -0.015850
v -1.885521 -0.427692 -0.128510
v -1.885521 0.416290 -0.128510
v -1.885725 0.587655 -0.128788
v -1.885725 -0.590968 -0.129287
vn -0.999786 -0.000732 -0.019257
vn -0.999817 -0.001190 -0.018433
vn -0.999786 -0.000458 -0.019715
vn -0.999786 0.000793 -0.019227
vn -0.999786 0.000000 -0.020569
vn -0.999786 0.000519 -0.019654
vn -0.999817 0.001312 -0.018311
usemtl ac3dmat1.009
s 1
f 3//1 7//2 6//3
f 1//4 2//5 5//6
f 4//5 3//1 6//3
f 8//7 1//4 5//6
