# Blender OBJ File: /home/milan/Dokumenty/Modely/psmer.blend
# www.blender.org
mtllib psmer.mtl
o BACKLIGHT_BACKLIGHT_BACKLIGHT_BACKLIGHT
v -2.120973 -0.621982 -0.056243
v -2.146549 -0.559988 -0.001013
v -2.144492 -0.568835 -0.055143
v -2.111651 -0.641773 -0.056240
v -2.117666 -0.622676 -0.001809
v -2.120973 -0.621982 -0.056243
v -2.086520 -0.695719 -0.056132
v -2.103277 -0.653316 -0.001805
v -2.111651 -0.641773 -0.056240
v -2.060319 -0.738495 -0.056326
v -2.061667 -0.731154 -0.002296
v -2.086520 -0.695719 -0.056132
v -2.103277 -0.653316 -0.001805
v -2.086520 -0.695719 -0.056132
v -2.084935 -0.692796 -0.001901
v -2.086520 -0.695719 -0.056132
v -2.061667 -0.731154 -0.002296
v -2.084935 -0.692796 -0.001901
v -2.117666 -0.622676 -0.001809
v -2.111651 -0.641773 -0.056240
v -2.103277 -0.653316 -0.001805
v -2.146549 -0.559988 -0.001013
v -2.120973 -0.621982 -0.056243
v -2.117666 -0.622676 -0.001809
v -2.146549 -0.559988 -0.001013
v -2.152006 -0.548033 -0.055145
v -2.144492 -0.568835 -0.055143
vt 0.496000 0.467800 0.0
vt 0.488000 0.497200 0.0
vt 0.488800 0.465400 0.0
vt 0.498600 0.468900 0.0
vt 0.496900 0.497100 0.0
vt 0.496000 0.467800 0.0
vt 0.504700 0.471500 0.0
vt 0.500700 0.497200 0.0
vt 0.498600 0.468900 0.0
vt 0.510200 0.473100 0.0
vt 0.510100 0.497300 0.0
vt 0.504700 0.471500 0.0
vt 0.500700 0.497200 0.0
vt 0.504700 0.471500 0.0
vt 0.505100 0.497300 0.0
vt 0.504700 0.471500 0.0
vt 0.510100 0.497300 0.0
vt 0.505100 0.497300 0.0
vt 0.496900 0.497100 0.0
vt 0.498600 0.468900 0.0
vt 0.500700 0.497200 0.0
vt 0.488000 0.497200 0.0
vt 0.496000 0.467800 0.0
vt 0.496900 0.497100 0.0
vt 0.488000 0.497200 0.0
vt 0.486000 0.464100 0.0
vt 0.488800 0.465400 0.0
vn -0.906766 -0.419080 0.045686
vn -0.917661 -0.395703 0.035768
vn -0.926176 -0.376141 0.026276
vn -0.904416 -0.423750 0.049532
vn -0.905362 -0.421674 0.049440
vn -0.906766 -0.419080 0.045686
vn -0.879788 -0.472640 0.050386
vn -0.904935 -0.422651 0.049318
vn -0.904416 -0.423750 0.049532
vn -0.851588 -0.521836 0.049654
vn -0.852626 -0.519974 0.051363
vn -0.879788 -0.472640 0.050386
vn -0.904935 -0.422651 0.049318
vn -0.879788 -0.472640 0.050386
vn -0.881649 -0.469100 0.051027
vn -0.879788 -0.472640 0.050386
vn -0.852626 -0.519974 0.051363
vn -0.881649 -0.469100 0.051027
vn -0.905362 -0.421674 0.049440
vn -0.904416 -0.423750 0.049532
vn -0.904935 -0.422651 0.049318
vn -0.917661 -0.395703 0.035768
vn -0.906766 -0.419080 0.045686
vn -0.905362 -0.421674 0.049440
vn -0.917661 -0.395703 0.035768
vn -0.940336 -0.339640 0.019776
vn -0.926176 -0.376141 0.026276
usemtl BackLight
f 23/1/1 25/2/2 27/3/3 
f 20/4/4 24/5/5 23/6/6 
f 16/7/7 21/8/8 20/9/9 
f 10/10/10 17/11/11 16/12/12 
f 21/13/13 16/14/14 18/15/15 
f 16/16/16 17/17/17 18/18/18 
f 24/19/19 20/20/20 21/21/21 
f 25/22/22 23/23/23 24/24/24 
f 25/25/25 26/26/26 27/27/27 
o FRONTLIGHT_FRONTLIGH_FRONTLIGHT_FRONTLIGHT
v 2.002792 -0.701004 -0.105255
v 1.965704 -0.742379 -0.111806
v 2.040575 -0.735792 -0.236244
v 2.066800 -0.694554 -0.236437
v 2.002792 -0.701004 -0.105255
v 2.040575 -0.735792 -0.236244
v 1.965704 -0.742379 -0.111806
v 1.934994 -0.764716 -0.128416
v 1.998011 -0.765111 -0.235552
v 2.040575 -0.735792 -0.236244
v 1.965704 -0.742379 -0.111806
v 1.998011 -0.765111 -0.235552
v 1.915946 -0.782085 -0.165951
v 1.910157 -0.790354 -0.232458
v 1.998011 -0.765111 -0.235552
v 1.934994 -0.764716 -0.128416
v 1.915946 -0.782085 -0.165951
v 1.998011 -0.765111 -0.235552
vt 0.493100 0.529400 0.0
vt 0.485400 0.524800 0.0
vt 0.501800 0.470100 0.0
vt 0.508100 0.468200 0.0
vt 0.493100 0.529400 0.0
vt 0.501800 0.470100 0.0
vt 0.485400 0.524800 0.0
vt 0.479300 0.517000 0.0
vt 0.492600 0.471600 0.0
vt 0.501800 0.470100 0.0
vt 0.485400 0.524800 0.0
vt 0.492600 0.471600 0.0
vt 0.475900 0.501100 0.0
vt 0.475000 0.474100 0.0
vt 0.492600 0.471600 0.0
vt 0.479300 0.517000 0.0
vt 0.475900 0.501100 0.0
vt 0.492600 0.471600 0.0
vn 0.689413 -0.625629 0.365001
vn 0.567461 -0.758873 0.319468
vn 0.694632 -0.634236 0.339396
vn 0.788018 -0.499435 0.359935
vn 0.689413 -0.625629 0.365001
vn 0.694632 -0.634236 0.339396
vn 0.567461 -0.758873 0.319468
vn 0.428968 -0.866421 0.255501
vn 0.463973 -0.852901 0.239265
vn 0.694632 -0.634236 0.339396
vn 0.567461 -0.758873 0.319468
vn 0.463973 -0.852901 0.239265
vn 0.341716 -0.922788 0.177892
vn 0.277993 -0.955901 0.094638
vn 0.463973 -0.852901 0.239265
vn 0.428968 -0.866421 0.255501
vn 0.341716 -0.922788 0.177892
vn 0.463973 -0.852901 0.239265
usemtl FrontLight
f 32/28/28 38/29/29 37/30/30 
f 31/31/31 32/32/32 37/33/33 
f 38/34/34 43/35/35 45/36/36 
f 37/37/37 38/38/38 45/39/39 
f 44/40/40 41/41/41 45/42/42 
f 43/43/43 44/44/44 45/45/45 
